<svg aria-hidden="true" style="position:absolute;width:0;height:0;overflow:hidden" xmlns="http://www.w3.org/2000/svg">
<defs>
<symbol id="icon-facebook" viewBox="0 0 31 32">
<path fill="#436eab" style="fill: var(--color1, #436eab)" d="M26.318 2.314h-21.551c-0.779 0-1.527 0.307-2.078 0.853s-0.861 1.287-0.861 2.060v21.363c0 0.773 0.31 1.514 0.861 2.060s1.299 0.853 2.078 0.853h8.403v-9.244h-3.857v-4.351h3.857v-3.316c0-3.772 2.265-5.856 5.735-5.856 1.662 0 3.399 0.294 3.399 0.294v3.702h-1.914c-1.886 0-2.475 1.16-2.475 2.351v2.825h4.211l-0.673 4.351h-3.538v9.244h8.403c0.779 0 1.527-0.307 2.078-0.853s0.861-1.287 0.861-2.060v-21.363c0-0.773-0.31-1.514-0.861-2.060s-1.299-0.853-2.078-0.853z"></path>
</symbol>
  </defs>
</svg>